<svg width="24" height="24" viewBox="0 0 24 24" fill="none" xmlns="http://www.w3.org/2000/svg">
<path d="M4.45836 13.9082L11.411 20.4395C11.6505 20.6644 11.7702 20.7769 11.9114 20.8046C11.975 20.8171 12.0404 20.8171 12.104 20.8046C12.2452 20.7769 12.3649 20.6644 12.6044 20.4395L19.557 13.9082C21.5132 12.0706 21.7507 9.0466 20.1055 6.92607L19.7961 6.52734C17.828 3.99058 13.8773 4.41601 12.4944 7.31365C12.299 7.72296 11.7164 7.72296 11.521 7.31365C10.1381 4.41601 6.18741 3.99058 4.21923 6.52735L3.90988 6.92607C2.26464 9.0466 2.50219 12.0706 4.45836 13.9082Z" stroke="#2D4059" stroke-width="2"/>
</svg>
