<svg width="18" height="18" viewBox="0 0 18 18" fill="none" xmlns="http://www.w3.org/2000/svg">
<g clip-path="url(#clip0_9_318)">
<path fill-rule="evenodd" clip-rule="evenodd" d="M18 9.05499C18 4.05406 13.9706 0 9 0C4.02943 0 0 4.05406 0 9.05499C0 13.5746 3.29117 17.3207 7.59375 18V11.6725H5.3086V9.05499H7.59375V7.06007C7.59375 4.79066 8.93739 3.53711 10.9931 3.53711C11.9778 3.53711 13.0078 3.71397 13.0078 3.71397V5.94235H11.8729C10.7549 5.94235 10.4062 6.64034 10.4062 7.35643V9.05499H12.9023L12.5033 11.6725H10.4062V18C14.7088 17.3207 18 13.5746 18 9.05499Z" fill="#1877F2"/>
</g>
<defs>
<clipPath id="clip0_9_318">
<rect width="18" height="18" fill="white"/>
</clipPath>
</defs>
</svg>
