<svg width="140" height="46" viewBox="0 0 140 46" fill="none" xmlns="http://www.w3.org/2000/svg">
<rect x="91" width="49" height="46" fill="#00B8A9"/>
<path d="M109.398 10.7273H114.318V25.8409C114.318 27.5379 113.913 29.0227 113.102 30.2955C112.299 31.5682 111.174 32.5606 109.727 33.2727C108.28 33.9773 106.595 34.3295 104.67 34.3295C102.739 34.3295 101.049 33.9773 99.6023 33.2727C98.1553 32.5606 97.0303 31.5682 96.2273 30.2955C95.4242 29.0227 95.0227 27.5379 95.0227 25.8409V10.7273H99.9432V25.4205C99.9432 26.3068 100.136 27.0947 100.523 27.7841C100.917 28.4735 101.47 29.0152 102.182 29.4091C102.894 29.803 103.723 30 104.67 30C105.625 30 106.455 29.803 107.159 29.4091C107.871 29.0152 108.42 28.4735 108.807 27.7841C109.201 27.0947 109.398 26.3068 109.398 25.4205V10.7273ZM118.276 40.5455V16.5455H123.048V19.4773H123.264C123.476 19.0076 123.783 18.5303 124.185 18.0455C124.594 17.553 125.124 17.1439 125.776 16.8182C126.435 16.4848 127.253 16.3182 128.23 16.3182C129.503 16.3182 130.677 16.6515 131.753 17.3182C132.829 17.9773 133.688 18.9735 134.332 20.3068C134.976 21.6326 135.298 23.2955 135.298 25.2955C135.298 27.2424 134.984 28.8864 134.355 30.2273C133.734 31.5606 132.885 32.572 131.81 33.2614C130.741 33.9432 129.545 34.2841 128.219 34.2841C127.279 34.2841 126.48 34.1288 125.821 33.8182C125.17 33.5076 124.635 33.1174 124.219 32.6477C123.802 32.1705 123.484 31.6894 123.264 31.2045H123.116V40.5455H118.276ZM123.014 25.2727C123.014 26.3106 123.158 27.2159 123.446 27.9886C123.734 28.7614 124.151 29.3636 124.696 29.7955C125.241 30.2197 125.904 30.4318 126.685 30.4318C127.473 30.4318 128.139 30.2159 128.685 29.7841C129.23 29.3447 129.643 28.7386 129.923 27.9659C130.211 27.1856 130.355 26.2879 130.355 25.2727C130.355 24.2652 130.215 23.3788 129.935 22.6136C129.654 21.8485 129.241 21.25 128.696 20.8182C128.151 20.3864 127.48 20.1705 126.685 20.1705C125.897 20.1705 125.23 20.3788 124.685 20.7955C124.147 21.2121 123.734 21.803 123.446 22.5682C123.158 23.3333 123.014 24.2348 123.014 25.2727Z" fill="#FFFFFF"/>
<path d="M6.02273 34V10.7273H10.9432V29.9432H20.9205V34H6.02273ZM32.0426 34.3409C30.2472 34.3409 28.7017 33.9773 27.4062 33.25C26.1184 32.5152 25.1259 31.4773 24.429 30.1364C23.732 28.7879 23.3835 27.1932 23.3835 25.3523C23.3835 23.5568 23.732 21.9811 24.429 20.625C25.1259 19.2689 26.107 18.2121 27.3722 17.4545C28.6449 16.697 30.1373 16.3182 31.8494 16.3182C33.0009 16.3182 34.0729 16.5038 35.0653 16.875C36.0653 17.2386 36.9366 17.7879 37.679 18.5227C38.429 19.2576 39.0123 20.1818 39.429 21.2955C39.8456 22.4015 40.054 23.697 40.054 25.1818V26.5114H25.3153V23.5114H35.4972C35.4972 22.8144 35.3456 22.197 35.0426 21.6591C34.7396 21.1212 34.3191 20.7008 33.7812 20.3977C33.2509 20.0871 32.6335 19.9318 31.929 19.9318C31.1941 19.9318 30.5426 20.1023 29.9744 20.4432C29.4138 20.7765 28.9744 21.2273 28.6562 21.7955C28.3381 22.3561 28.1752 22.9811 28.1676 23.6705V26.5227C28.1676 27.3864 28.3267 28.1326 28.6449 28.7614C28.9706 29.3902 29.429 29.875 30.0199 30.2159C30.6108 30.5568 31.3116 30.7273 32.1222 30.7273C32.66 30.7273 33.1525 30.6515 33.5994 30.5C34.0464 30.3485 34.429 30.1212 34.7472 29.8182C35.0653 29.5152 35.3078 29.1439 35.4744 28.7045L39.9517 29C39.7244 30.0758 39.2585 31.0152 38.554 31.8182C37.857 32.6136 36.9555 33.2348 35.8494 33.6818C34.7509 34.1212 33.482 34.3409 32.0426 34.3409ZM59.017 16.5455L52.9148 34H47.4602L41.358 16.5455H46.4716L50.0966 29.0341H50.2784L53.892 16.5455H59.017ZM68.8864 34.3409C67.0909 34.3409 65.5455 33.9773 64.25 33.25C62.9621 32.5152 61.9697 31.4773 61.2727 30.1364C60.5758 28.7879 60.2273 27.1932 60.2273 25.3523C60.2273 23.5568 60.5758 21.9811 61.2727 20.625C61.9697 19.2689 62.9508 18.2121 64.2159 17.4545C65.4886 16.697 66.9811 16.3182 68.6932 16.3182C69.8447 16.3182 70.9167 16.5038 71.9091 16.875C72.9091 17.2386 73.7803 17.7879 74.5227 18.5227C75.2727 19.2576 75.8561 20.1818 76.2727 21.2955C76.6894 22.4015 76.8977 23.697 76.8977 25.1818V26.5114H62.1591V23.5114H72.3409C72.3409 22.8144 72.1894 22.197 71.8864 21.6591C71.5833 21.1212 71.1629 20.7008 70.625 20.3977C70.0947 20.0871 69.4773 19.9318 68.7727 19.9318C68.0379 19.9318 67.3864 20.1023 66.8182 20.4432C66.2576 20.7765 65.8182 21.2273 65.5 21.7955C65.1818 22.3561 65.0189 22.9811 65.0114 23.6705V26.5227C65.0114 27.3864 65.1705 28.1326 65.4886 28.7614C65.8144 29.3902 66.2727 29.875 66.8636 30.2159C67.4545 30.5568 68.1553 30.7273 68.9659 30.7273C69.5038 30.7273 69.9962 30.6515 70.4432 30.5C70.8902 30.3485 71.2727 30.1212 71.5909 29.8182C71.9091 29.5152 72.1515 29.1439 72.3182 28.7045L76.7955 29C76.5682 30.0758 76.1023 31.0152 75.3977 31.8182C74.7008 32.6136 73.7992 33.2348 72.6932 33.6818C71.5947 34.1212 70.3258 34.3409 68.8864 34.3409ZM84.8977 10.7273V34H80.0568V10.7273H84.8977Z" fill="#00B8A9"/>
</svg>
