<svg width="124" height="31" viewBox="0 0 124 31" fill="none" xmlns="http://www.w3.org/2000/svg">
    <path
        d="M0.0227273 23.5V0.227272H4.94318V19.4432H14.9205V23.5H0.0227273ZM26.0426 23.8409C24.2472 23.8409 22.7017 23.4773 21.4062 22.75C20.1184 22.0152 19.1259 20.9773 18.429 19.6364C17.732 18.2879 17.3835 16.6932 17.3835 14.8523C17.3835 13.0568 17.732 11.4811 18.429 10.125C19.1259 8.76894 20.107 7.71212 21.3722 6.95454C22.6449 6.19697 24.1373 5.81818 25.8494 5.81818C27.0009 5.81818 28.0729 6.00379 29.0653 6.375C30.0653 6.73864 30.9366 7.28788 31.679 8.02273C32.429 8.75758 33.0123 9.68182 33.429 10.7955C33.8456 11.9015 34.054 13.197 34.054 14.6818V16.0114H19.3153V13.0114H29.4972C29.4972 12.3144 29.3456 11.697 29.0426 11.1591C28.7396 10.6212 28.3191 10.2008 27.7812 9.89773C27.2509 9.58712 26.6335 9.43182 25.929 9.43182C25.1941 9.43182 24.5426 9.60227 23.9744 9.94318C23.4138 10.2765 22.9744 10.7273 22.6562 11.2955C22.3381 11.8561 22.1752 12.4811 22.1676 13.1705V16.0227C22.1676 16.8864 22.3267 17.6326 22.6449 18.2614C22.9706 18.8902 23.429 19.375 24.0199 19.7159C24.6108 20.0568 25.3116 20.2273 26.1222 20.2273C26.66 20.2273 27.1525 20.1515 27.5994 20C28.0464 19.8485 28.429 19.6212 28.7472 19.3182C29.0653 19.0152 29.3078 18.6439 29.4744 18.2045L33.9517 18.5C33.7244 19.5758 33.2585 20.5152 32.554 21.3182C31.857 22.1136 30.9555 22.7348 29.8494 23.1818C28.7509 23.6212 27.482 23.8409 26.0426 23.8409ZM53.017 6.04545L46.9148 23.5H41.4602L35.358 6.04545H40.4716L44.0966 18.5341H44.2784L47.892 6.04545H53.017ZM62.8864 23.8409C61.0909 23.8409 59.5455 23.4773 58.25 22.75C56.9621 22.0152 55.9697 20.9773 55.2727 19.6364C54.5758 18.2879 54.2273 16.6932 54.2273 14.8523C54.2273 13.0568 54.5758 11.4811 55.2727 10.125C55.9697 8.76894 56.9508 7.71212 58.2159 6.95454C59.4886 6.19697 60.9811 5.81818 62.6932 5.81818C63.8447 5.81818 64.9167 6.00379 65.9091 6.375C66.9091 6.73864 67.7803 7.28788 68.5227 8.02273C69.2727 8.75758 69.8561 9.68182 70.2727 10.7955C70.6894 11.9015 70.8977 13.197 70.8977 14.6818V16.0114H56.1591V13.0114H66.3409C66.3409 12.3144 66.1894 11.697 65.8864 11.1591C65.5833 10.6212 65.1629 10.2008 64.625 9.89773C64.0947 9.58712 63.4773 9.43182 62.7727 9.43182C62.0379 9.43182 61.3864 9.60227 60.8182 9.94318C60.2576 10.2765 59.8182 10.7273 59.5 11.2955C59.1818 11.8561 59.0189 12.4811 59.0114 13.1705V16.0227C59.0114 16.8864 59.1705 17.6326 59.4886 18.2614C59.8144 18.8902 60.2727 19.375 60.8636 19.7159C61.4545 20.0568 62.1553 20.2273 62.9659 20.2273C63.5038 20.2273 63.9962 20.1515 64.4432 20C64.8902 19.8485 65.2727 19.6212 65.5909 19.3182C65.9091 19.0152 66.1515 18.6439 66.3182 18.2045L70.7955 18.5C70.5682 19.5758 70.1023 20.5152 69.3977 21.3182C68.7008 22.1136 67.7992 22.7348 66.6932 23.1818C65.5947 23.6212 64.3258 23.8409 62.8864 23.8409ZM78.8977 0.227272V23.5H74.0568V0.227272H78.8977Z"
        fill="#00B8A9" />
    <path
        d="M97.2415 0.227272H102.162V15.3409C102.162 17.0379 101.757 18.5227 100.946 19.7955C100.143 21.0682 99.018 22.0606 97.571 22.7727C96.1241 23.4773 94.4384 23.8295 92.5142 23.8295C90.5824 23.8295 88.893 23.4773 87.446 22.7727C85.9991 22.0606 84.8741 21.0682 84.071 19.7955C83.268 18.5227 82.8665 17.0379 82.8665 15.3409V0.227272H87.7869V14.9205C87.7869 15.8068 87.9801 16.5947 88.3665 17.2841C88.7604 17.9735 89.3134 18.5152 90.0256 18.9091C90.7377 19.303 91.5672 19.5 92.5142 19.5C93.4688 19.5 94.2983 19.303 95.0028 18.9091C95.715 18.5152 96.2642 17.9735 96.6506 17.2841C97.0445 16.5947 97.2415 15.8068 97.2415 14.9205V0.227272ZM106.119 30.0455V6.04545H110.892V8.97727H111.108C111.32 8.50758 111.627 8.0303 112.028 7.54545C112.438 7.05303 112.968 6.64394 113.619 6.31818C114.278 5.98485 115.097 5.81818 116.074 5.81818C117.347 5.81818 118.521 6.15152 119.597 6.81818C120.672 7.47727 121.532 8.47348 122.176 9.80682C122.82 11.1326 123.142 12.7955 123.142 14.7955C123.142 16.7424 122.828 18.3864 122.199 19.7273C121.578 21.0606 120.729 22.072 119.653 22.7614C118.585 23.4432 117.388 23.7841 116.062 23.7841C115.123 23.7841 114.324 23.6288 113.665 23.3182C113.013 23.0076 112.479 22.6174 112.062 22.1477C111.646 21.6705 111.328 21.1894 111.108 20.7045H110.96V30.0455H106.119ZM110.858 14.7727C110.858 15.8106 111.002 16.7159 111.29 17.4886C111.578 18.2614 111.994 18.8636 112.54 19.2955C113.085 19.7197 113.748 19.9318 114.528 19.9318C115.316 19.9318 115.983 19.7159 116.528 19.2841C117.074 18.8447 117.487 18.2386 117.767 17.4659C118.055 16.6856 118.199 15.7879 118.199 14.7727C118.199 13.7652 118.059 12.8788 117.778 12.1136C117.498 11.3485 117.085 10.75 116.54 10.3182C115.994 9.88636 115.324 9.67045 114.528 9.67045C113.741 9.67045 113.074 9.87879 112.528 10.2955C111.991 10.7121 111.578 11.303 111.29 12.0682C111.002 12.8333 110.858 13.7348 110.858 14.7727Z"
        fill="#2D4059" />
</svg>